<svg version="1.1" id="Capa_1" xmlns="http://www.w3.org/2000/svg" xmlns:xlink="http://www.w3.org/1999/xlink" x="0px" y="0px"
	 width="485.213px" height="485.212px" viewBox="0 0 485.213 485.212" style="enable-background:new 0 0 485.213 485.212;"
	 xml:space="preserve" >
<g>
	<path d="M303.255,394.237c0,8.383-6.776,15.159-15.158,15.159h-90.98c-8.38,0-15.161-6.776-15.161-15.159
		c0-8.382,6.781-15.163,15.161-15.163h90.98C296.479,379.074,303.255,385.855,303.255,394.237z M288.097,424.559h-90.98
		c-8.38,0-15.161,6.786-15.161,15.168c0,8.378,6.781,15.159,15.161,15.159c0,16.764,13.567,30.326,30.327,30.326h30.327
		c16.76,0,30.327-13.562,30.327-30.326c8.382,0,15.158-6.781,15.158-15.159C303.255,431.345,296.479,424.559,288.097,424.559z
		 M394.235,151.628C394.235,67.878,326.357,0,242.606,0S90.978,67.878,90.978,151.628c0,55.973,30.682,104.305,75.817,130.599
		v51.357c0,16.759,13.56,30.321,30.322,30.321h90.98c16.731,0,30.326-13.562,30.326-30.321v-51.357
		C363.554,255.965,394.235,207.601,394.235,151.628z" stroke="currentStroke" fill="currentFill" />
</g>
<g>
</g>
<g>
</g>
<g>
</g>
<g>
</g>
<g>
</g>
<g>
</g>
<g>
</g>
<g>
</g>
<g>
</g>
<g>
</g>
<g>
</g>
<g>
</g>
<g>
</g>
<g>
</g>
<g>
</g>
</svg>
